<mxfile host="app.diagrams.net" modified="2022-12-30T07:46:08.587Z" agent="5.0 (Macintosh; Intel Mac OS X 10_15_7) AppleWebKit/537.36 (KHTML, like Gecko) Chrome/108.0.0.0 Safari/537.36" etag="yt6E2780q81Dspp5jK57" version="20.5.2" type="github">
  <diagram id="5rKiDoT4T5dmzfJAL20L" name="system">
    <mxGraphModel dx="1298" dy="784" grid="1" gridSize="10" guides="1" tooltips="1" connect="1" arrows="1" fold="1" page="1" pageScale="1" pageWidth="850" pageHeight="1100" math="0" shadow="0">
      <root>
        <mxCell id="0" />
        <mxCell id="1" parent="0" />
        <mxCell id="_sceqU5b_xYAUUyEgTO3-10" value="&amp;nbsp;Search Ads&amp;nbsp;&lt;br&gt;System&amp;nbsp;" style="rounded=0;whiteSpace=wrap;html=1;align=right;verticalAlign=top;" vertex="1" parent="1">
          <mxGeometry x="270" y="200" width="360" height="410" as="geometry" />
        </mxCell>
        <mxCell id="_sceqU5b_xYAUUyEgTO3-20" style="edgeStyle=orthogonalEdgeStyle;rounded=0;orthogonalLoop=1;jettySize=auto;html=1;exitX=0.5;exitY=0;exitDx=0;exitDy=0;" edge="1" parent="1" source="_sceqU5b_xYAUUyEgTO3-1" target="_sceqU5b_xYAUUyEgTO3-3">
          <mxGeometry relative="1" as="geometry" />
        </mxCell>
        <mxCell id="_sceqU5b_xYAUUyEgTO3-1" value="Recall" style="rounded=0;whiteSpace=wrap;html=1;" vertex="1" parent="1">
          <mxGeometry x="320" y="540" width="120" height="50" as="geometry" />
        </mxCell>
        <mxCell id="_sceqU5b_xYAUUyEgTO3-22" style="edgeStyle=orthogonalEdgeStyle;rounded=0;orthogonalLoop=1;jettySize=auto;html=1;exitX=0.5;exitY=0;exitDx=0;exitDy=0;entryX=0.5;entryY=1;entryDx=0;entryDy=0;" edge="1" parent="1" source="_sceqU5b_xYAUUyEgTO3-3" target="_sceqU5b_xYAUUyEgTO3-4">
          <mxGeometry relative="1" as="geometry" />
        </mxCell>
        <mxCell id="_sceqU5b_xYAUUyEgTO3-3" value="Relevance Filter" style="rounded=0;whiteSpace=wrap;html=1;" vertex="1" parent="1">
          <mxGeometry x="320" y="460" width="120" height="50" as="geometry" />
        </mxCell>
        <mxCell id="_sceqU5b_xYAUUyEgTO3-23" style="edgeStyle=orthogonalEdgeStyle;rounded=0;orthogonalLoop=1;jettySize=auto;html=1;exitX=0.5;exitY=0;exitDx=0;exitDy=0;entryX=0.5;entryY=1;entryDx=0;entryDy=0;" edge="1" parent="1" source="_sceqU5b_xYAUUyEgTO3-4" target="_sceqU5b_xYAUUyEgTO3-5">
          <mxGeometry relative="1" as="geometry" />
        </mxCell>
        <mxCell id="_sceqU5b_xYAUUyEgTO3-36" style="edgeStyle=orthogonalEdgeStyle;rounded=0;orthogonalLoop=1;jettySize=auto;html=1;exitX=1;exitY=0.5;exitDx=0;exitDy=0;startArrow=classic;startFill=1;endArrow=classic;endFill=1;entryX=-0.043;entryY=0.861;entryDx=0;entryDy=0;entryPerimeter=0;" edge="1" parent="1" source="_sceqU5b_xYAUUyEgTO3-4" target="_sceqU5b_xYAUUyEgTO3-29">
          <mxGeometry relative="1" as="geometry" />
        </mxCell>
        <mxCell id="_sceqU5b_xYAUUyEgTO3-4" value="Pre-rank" style="rounded=0;whiteSpace=wrap;html=1;" vertex="1" parent="1">
          <mxGeometry x="320" y="380" width="120" height="50" as="geometry" />
        </mxCell>
        <mxCell id="_sceqU5b_xYAUUyEgTO3-25" style="edgeStyle=orthogonalEdgeStyle;rounded=0;orthogonalLoop=1;jettySize=auto;html=1;exitX=0.5;exitY=0;exitDx=0;exitDy=0;entryX=0.692;entryY=1.05;entryDx=0;entryDy=0;entryPerimeter=0;" edge="1" parent="1" source="_sceqU5b_xYAUUyEgTO3-5" target="_sceqU5b_xYAUUyEgTO3-7">
          <mxGeometry relative="1" as="geometry" />
        </mxCell>
        <mxCell id="_sceqU5b_xYAUUyEgTO3-35" style="edgeStyle=orthogonalEdgeStyle;rounded=0;orthogonalLoop=1;jettySize=auto;html=1;exitX=1;exitY=0.5;exitDx=0;exitDy=0;entryX=0;entryY=0.25;entryDx=0;entryDy=0;startArrow=classic;startFill=1;endArrow=classic;endFill=1;" edge="1" parent="1" source="_sceqU5b_xYAUUyEgTO3-5" target="_sceqU5b_xYAUUyEgTO3-29">
          <mxGeometry relative="1" as="geometry" />
        </mxCell>
        <mxCell id="_sceqU5b_xYAUUyEgTO3-5" value="Rank" style="rounded=0;whiteSpace=wrap;html=1;verticalAlign=top;" vertex="1" parent="1">
          <mxGeometry x="295" y="250" width="170" height="90" as="geometry" />
        </mxCell>
        <mxCell id="_sceqU5b_xYAUUyEgTO3-7" value="Combination" style="rounded=0;whiteSpace=wrap;html=1;" vertex="1" parent="1">
          <mxGeometry x="110" y="90" width="390" height="60" as="geometry" />
        </mxCell>
        <mxCell id="_sceqU5b_xYAUUyEgTO3-9" value="Search System&amp;nbsp;" style="rounded=0;whiteSpace=wrap;html=1;verticalAlign=top;align=right;" vertex="1" parent="1">
          <mxGeometry x="60" y="200" width="190" height="410" as="geometry" />
        </mxCell>
        <mxCell id="_sceqU5b_xYAUUyEgTO3-16" style="edgeStyle=orthogonalEdgeStyle;rounded=0;orthogonalLoop=1;jettySize=auto;html=1;entryX=1;entryY=0.5;entryDx=0;entryDy=0;" edge="1" parent="1" target="_sceqU5b_xYAUUyEgTO3-7">
          <mxGeometry relative="1" as="geometry">
            <mxPoint x="550" y="120" as="sourcePoint" />
          </mxGeometry>
        </mxCell>
        <mxCell id="_sceqU5b_xYAUUyEgTO3-11" value="User" style="shape=umlActor;verticalLabelPosition=bottom;verticalAlign=top;html=1;outlineConnect=0;" vertex="1" parent="1">
          <mxGeometry x="550" y="90" width="30" height="60" as="geometry" />
        </mxCell>
        <mxCell id="_sceqU5b_xYAUUyEgTO3-18" style="edgeStyle=orthogonalEdgeStyle;rounded=0;orthogonalLoop=1;jettySize=auto;html=1;exitX=0.5;exitY=1;exitDx=0;exitDy=0;" edge="1" parent="1" source="_sceqU5b_xYAUUyEgTO3-10" target="_sceqU5b_xYAUUyEgTO3-10">
          <mxGeometry relative="1" as="geometry" />
        </mxCell>
        <mxCell id="_sceqU5b_xYAUUyEgTO3-29" value="Bidding" style="rounded=0;whiteSpace=wrap;html=1;" vertex="1" parent="1">
          <mxGeometry x="530" y="250" width="70" height="180" as="geometry" />
        </mxCell>
        <mxCell id="_sceqU5b_xYAUUyEgTO3-44" style="edgeStyle=orthogonalEdgeStyle;rounded=0;orthogonalLoop=1;jettySize=auto;html=1;exitX=0.5;exitY=0;exitDx=0;exitDy=0;entryX=0.5;entryY=1;entryDx=0;entryDy=0;startArrow=none;startFill=0;endArrow=classic;endFill=1;" edge="1" parent="1" source="_sceqU5b_xYAUUyEgTO3-30" target="_sceqU5b_xYAUUyEgTO3-31">
          <mxGeometry relative="1" as="geometry" />
        </mxCell>
        <mxCell id="_sceqU5b_xYAUUyEgTO3-30" value="Recall" style="rounded=0;whiteSpace=wrap;html=1;" vertex="1" parent="1">
          <mxGeometry x="95" y="480" width="120" height="60" as="geometry" />
        </mxCell>
        <mxCell id="_sceqU5b_xYAUUyEgTO3-45" style="edgeStyle=orthogonalEdgeStyle;rounded=0;orthogonalLoop=1;jettySize=auto;html=1;exitX=0.5;exitY=0;exitDx=0;exitDy=0;entryX=0.5;entryY=1;entryDx=0;entryDy=0;startArrow=none;startFill=0;endArrow=classic;endFill=1;" edge="1" parent="1" source="_sceqU5b_xYAUUyEgTO3-31" target="_sceqU5b_xYAUUyEgTO3-32">
          <mxGeometry relative="1" as="geometry" />
        </mxCell>
        <mxCell id="_sceqU5b_xYAUUyEgTO3-31" value="Pre-rank" style="rounded=0;whiteSpace=wrap;html=1;" vertex="1" parent="1">
          <mxGeometry x="95" y="380" width="120" height="60" as="geometry" />
        </mxCell>
        <mxCell id="_sceqU5b_xYAUUyEgTO3-46" style="edgeStyle=orthogonalEdgeStyle;rounded=0;orthogonalLoop=1;jettySize=auto;html=1;exitX=0.5;exitY=0;exitDx=0;exitDy=0;entryX=0.113;entryY=1.083;entryDx=0;entryDy=0;entryPerimeter=0;startArrow=none;startFill=0;endArrow=classic;endFill=1;" edge="1" parent="1" source="_sceqU5b_xYAUUyEgTO3-32" target="_sceqU5b_xYAUUyEgTO3-7">
          <mxGeometry relative="1" as="geometry" />
        </mxCell>
        <mxCell id="_sceqU5b_xYAUUyEgTO3-32" value="Rank (pCTR)" style="rounded=0;whiteSpace=wrap;html=1;" vertex="1" parent="1">
          <mxGeometry x="95" y="280" width="120" height="60" as="geometry" />
        </mxCell>
        <mxCell id="_sceqU5b_xYAUUyEgTO3-33" value="pCTR" style="rounded=0;whiteSpace=wrap;html=1;" vertex="1" parent="1">
          <mxGeometry x="315" y="280" width="60" height="50" as="geometry" />
        </mxCell>
        <mxCell id="_sceqU5b_xYAUUyEgTO3-34" value="pCVR" style="rounded=0;whiteSpace=wrap;html=1;" vertex="1" parent="1">
          <mxGeometry x="385" y="280" width="60" height="50" as="geometry" />
        </mxCell>
        <mxCell id="_sceqU5b_xYAUUyEgTO3-42" style="edgeStyle=orthogonalEdgeStyle;rounded=0;orthogonalLoop=1;jettySize=auto;html=1;entryX=0.176;entryY=0.025;entryDx=0;entryDy=0;entryPerimeter=0;startArrow=classic;startFill=1;endArrow=none;endFill=0;exitX=0.5;exitY=1;exitDx=0;exitDy=0;" edge="1" parent="1" source="_sceqU5b_xYAUUyEgTO3-30">
          <mxGeometry relative="1" as="geometry">
            <mxPoint x="155.03999999999996" y="663" as="targetPoint" />
          </mxGeometry>
        </mxCell>
        <mxCell id="_sceqU5b_xYAUUyEgTO3-47" value="Item pool&amp;nbsp; &amp;nbsp; &amp;nbsp; &amp;nbsp; &amp;nbsp; &amp;nbsp; &amp;nbsp; &amp;nbsp; &amp;nbsp; &amp;nbsp; &amp;nbsp; &amp;nbsp; &amp;nbsp; &amp;nbsp; &amp;nbsp; &amp;nbsp; &amp;nbsp; &amp;nbsp; &amp;nbsp; &amp;nbsp; &amp;nbsp; &amp;nbsp; &amp;nbsp; &amp;nbsp; &amp;nbsp; &amp;nbsp; &amp;nbsp; &amp;nbsp; &amp;nbsp; &amp;nbsp; &amp;nbsp; &amp;nbsp; &amp;nbsp; &amp;nbsp; &amp;nbsp; &amp;nbsp; &amp;nbsp; &amp;nbsp; &amp;nbsp; &amp;nbsp; &amp;nbsp; &amp;nbsp; &amp;nbsp; &amp;nbsp;" style="shape=cylinder3;whiteSpace=wrap;html=1;boundedLbl=1;backgroundOutline=1;size=15;align=center;" vertex="1" parent="1">
          <mxGeometry x="80" y="660" width="540" height="120" as="geometry" />
        </mxCell>
        <mxCell id="_sceqU5b_xYAUUyEgTO3-48" value="Ads pool" style="shape=cylinder3;whiteSpace=wrap;html=1;boundedLbl=1;backgroundOutline=1;size=15;" vertex="1" parent="1">
          <mxGeometry x="260" y="700" width="240" height="70" as="geometry" />
        </mxCell>
        <mxCell id="_sceqU5b_xYAUUyEgTO3-17" style="edgeStyle=orthogonalEdgeStyle;rounded=0;orthogonalLoop=1;jettySize=auto;html=1;exitX=0.5;exitY=0;exitDx=0;exitDy=0;exitPerimeter=0;" edge="1" parent="1" target="_sceqU5b_xYAUUyEgTO3-1">
          <mxGeometry relative="1" as="geometry">
            <mxPoint x="380" y="700" as="sourcePoint" />
          </mxGeometry>
        </mxCell>
      </root>
    </mxGraphModel>
  </diagram>
</mxfile>
